<?xml version="1.0" encoding="UTF-8" standalone="no"?>
<!-- Created with Inkscape (http://www.inkscape.org/) -->

<svg
   width="37"
   height="96"
   viewBox="0 0 9.7895829 25.4"
   version="1.1"
   id="svg435"
   inkscape:version="1.2.2 (b0a8486541, 2022-12-01)"
   sodipodi:docname="az_sun.svg"
   xmlns:inkscape="http://www.inkscape.org/namespaces/inkscape"
   xmlns:sodipodi="http://sodipodi.sourceforge.net/DTD/sodipodi-0.dtd"
   xmlns="http://www.w3.org/2000/svg"
   xmlns:svg="http://www.w3.org/2000/svg">
  <sodipodi:namedview
     id="namedview437"
     pagecolor="#ffffff"
     bordercolor="#666666"
     borderopacity="1.0"
     inkscape:showpageshadow="2"
     inkscape:pageopacity="0.0"
     inkscape:pagecheckerboard="0"
     inkscape:deskcolor="#d1d1d1"
     inkscape:document-units="px"
     showgrid="true"
     inkscape:zoom="6.9544071"
     inkscape:cx="12.366259"
     inkscape:cy="36.164118"
     inkscape:window-width="1920"
     inkscape:window-height="1163"
     inkscape:window-x="1600"
     inkscape:window-y="0"
     inkscape:window-maximized="1"
     inkscape:current-layer="layer1">
    <inkscape:grid
       type="xygrid"
       id="grid556"
       originx="-7.9374998"
       originy="0" />
  </sodipodi:namedview>
  <defs
     id="defs432" />
  <g
     inkscape:label="Layer 1"
     inkscape:groupmode="layer"
     id="layer1"
     transform="translate(-7.9375)">
    <g
       id="path612">
      <path
         style="color:#000000;fill:#ffc600;stroke-width:1.05833;-inkscape-stroke:none"
         d="M 12.7,21.695833 V 9.7895835"
         id="path3659" />
      <path
         id="path3661"
         style="color:#000000;fill:#ffc600;stroke:#000014;stroke-width:0.264583;stroke-dasharray:none;stroke-opacity:1"
         d="M 12.170317,9.5203486 V 19.583817 H 9.4428342 l 3.2576828,5.634798 0.304891,-0.529167 2.950724,-5.105631 H 13.229167 V 9.5203486 Z"
         sodipodi:nodetypes="ccccccccc" />
    </g>
    <path
       fill="#ffc600"
       d="m 15.00796,2.3304498 c -0.10848,0.1084792 -0.284163,0.1084792 -0.393171,0 -0.108479,-0.1084792 -0.108479,-0.2844271 0,-0.3931708 l 0.642937,-0.6429375 c 0.108479,-0.1084792 0.284692,-0.1084792 0.393171,0 0.108479,0.1090083 0.108479,0.2849562 0,0.3934354 L 15.00796,2.3301852 Z m -2.163234,3.7676666 c -1.100666,0 -1.99681,-0.8964083 -1.99681,-1.997075 0,-1.1011958 0.895879,-1.9968103 1.996546,-1.9968103 1.100666,0 1.996545,0.8961437 1.996545,1.9968103 0,1.1006667 -0.895614,1.997075 -1.99681,1.997075 z M 10.680435,2.3304498 10.037497,1.6875123 c -0.1090075,-0.1084792 -0.1090075,-0.2844271 0,-0.3929062 0.108479,-0.1084792 0.284427,-0.1084792 0.393436,0 l 0.642408,0.6429375 c 0.108479,0.1084791 0.108479,0.2841625 0,0.3929062 -0.108479,0.1084792 -0.284692,0.1084792 -0.393171,0 z m 0,3.5409187 c 0.109008,-0.1084792 0.284691,-0.1084792 0.393435,0 0.108479,0.1084792 0.108479,0.2846917 0,0.3931708 l -0.642937,0.6429375 c -0.10848,0.1090084 -0.284957,0.1090084 -0.393171,0 -0.1090085,-0.1084791 -0.1090085,-0.284427 0,-0.3931708 l 0.642937,-0.6429375 z m 4.327525,0 0.642408,0.6429375 c 0.109273,0.1084792 0.109273,0.2841625 0,0.3926417 -0.108479,0.1090083 -0.283898,0.1090083 -0.392906,0 L 14.615053,6.2645393 c -0.108479,-0.1084791 -0.108479,-0.2849562 0,-0.3934354 0.109009,-0.1084791 0.284163,-0.1084791 0.393171,0 z M 13.072268,1.3192123 c 0,0.1534583 -0.09525,0.2778125 -0.249238,0.2778125 -0.153458,0 -0.249237,-0.1243542 -0.249237,-0.2778125 V 0.41010399 c 0,-0.1534583 0.09604,-0.27781249 0.249237,-0.27781249 0.153459,0 0.249503,0.12435419 0.249503,0.27781249 V 1.3194769 Z m -3.009106,3.0099 H 9.1537895 c -0.153459,0 -0.277813,-0.096044 -0.277813,-0.2492375 0,-0.1542521 0.124354,-0.2497667 0.277813,-0.2497667 h 0.9093725 c 0.153987,0 0.277812,0.09525 0.277812,0.2497667 0,0.1534583 -0.124354,0.2492375 -0.277812,0.2492375 z m 2.510896,2.5532291 c 0,-0.1534583 0.09604,-0.2783416 0.249237,-0.2778125 0.153458,0 0.249502,0.1243542 0.249502,0.2778125 v 0.9093729 c 0,0.153458 -0.09525,0.277813 -0.249237,0.277813 -0.153459,0 -0.249238,-0.124355 -0.249238,-0.277813 V 6.8823414 Z M 15.62682,3.8301081 h 0.909108 c 0.153988,0 0.277813,0.09525 0.277813,0.2497667 0,0.1534583 -0.124354,0.2492375 -0.277813,0.2492375 H 15.62682 c -0.153458,0 -0.278342,-0.096044 -0.278342,-0.2492375 0,-0.1545167 0.124354,-0.2497667 0.278342,-0.2497667 z"
       id="path182"
       style="stroke:#000000;stroke-width:0.264583;stroke-opacity:1" />
  </g>
</svg>
