<?xml version="1.0" encoding="UTF-8" standalone="no"?>
<!-- Created with Inkscape (http://www.inkscape.org/) -->

<svg
   width="38"
   height="38"
   viewBox="0 0 10.054167 10.054167"
   version="1.1"
   id="svg1790"
   sodipodi:docname="moon_67.svg"
   inkscape:version="1.1 (c68e22c387, 2021-05-23)"
   xmlns:inkscape="http://www.inkscape.org/namespaces/inkscape"
   xmlns:sodipodi="http://sodipodi.sourceforge.net/DTD/sodipodi-0.dtd"
   xmlns="http://www.w3.org/2000/svg"
   xmlns:svg="http://www.w3.org/2000/svg">
  <sodipodi:namedview
     id="namedview1792"
     pagecolor="#ffffff"
     bordercolor="#666666"
     borderopacity="1.0"
     inkscape:pageshadow="2"
     inkscape:pageopacity="0.0"
     inkscape:pagecheckerboard="0"
     inkscape:document-units="mm"
     showgrid="true"
     units="px"
     inkscape:zoom="6.4706222"
     inkscape:cx="-7.1090536"
     inkscape:cy="21.249888"
     inkscape:window-width="1600"
     inkscape:window-height="837"
     inkscape:window-x="0"
     inkscape:window-y="0"
     inkscape:window-maximized="1"
     inkscape:current-layer="layer1"
     inkscape:snap-global="true">
    <inkscape:grid
       type="xygrid"
       id="grid3680" />
  </sodipodi:namedview>
  <defs
     id="defs1787" />
  <g
     inkscape:label="Layer 1"
     inkscape:groupmode="layer"
     id="layer1">
    <g
       id="g7240"
       transform="matrix(-0.85191339,0,0,-0.85191339,7.9502669,2.0686813)">
      <path
         id="path8527"
         style="fill:#ffffff;stroke-width:0.0330729"
         inkscape:connector-curvature="0"
         d="m 8.4005217,-3.4726558 c 0,-2.7397607 -2.2211773,-4.960938 -4.960938,-4.960938 -2.73976071,0 -4.960938,2.2211773 -4.960938,4.960938 0,2.73976069 2.22117729,4.960938 4.960938,4.960938 2.7397607,0 4.960938,-2.22117731 4.960938,-4.960938" />
      <path
         id="path8529"
         style="fill:none;stroke:#000000;stroke-width:0.0330729;stroke-miterlimit:10"
         inkscape:connector-curvature="0"
         d="m 3.4395837,1.4882822 c 2.7397607,0 4.960938,-2.22117731 4.960938,-4.960938 0,-2.7397607 -2.2211773,-4.960938 -4.960938,-4.960938" />
      <path
         id="path8531"
         style="fill:#000000;stroke-width:0.0330729"
         inkscape:connector-curvature="0"
         d="m 3.4395837,1.4882822 c -2.73976071,0 -4.960938,-2.22117731 -4.960938,-4.960938 0,-2.7397607 2.22117729,-4.960938 4.960938,-4.960938 -1.7680783,3.7107816 -1.7680783,6.2110944 0,9.921876" />
    </g>
  </g>
</svg>
