<svg xmlns="http://www.w3.org/2000/svg" width="38" height="38" viewBox="0 0 38 38"><path fill="#FFC600" d="M27.176 8.308c-.41.41-1.074.41-1.486 0-.41-.41-.41-1.075 0-1.486l2.43-2.43c.41-.41 1.076-.41 1.486 0 .41.412.41 1.077 0 1.487l-2.43 2.428zM19 22.548c-4.16 0-7.547-3.388-7.547-7.548 0-4.162 3.386-7.547 7.546-7.547S26.545 10.84 26.545 15c0 4.16-3.385 7.548-7.547 7.548zM10.82 8.308l-2.43-2.43c-.412-.41-.412-1.075 0-1.485.41-.41 1.075-.41 1.487 0l2.428 2.43c.41.41.41 1.074 0 1.485-.41.41-1.076.41-1.486 0zm0 13.383c.412-.41 1.076-.41 1.487 0 .41.41.41 1.076 0 1.486l-2.43 2.43c-.41.412-1.077.412-1.486 0-.412-.41-.412-1.075 0-1.486l2.43-2.43zm16.356 0l2.428 2.43c.413.41.413 1.074 0 1.484-.41.412-1.073.412-1.485 0l-2.428-2.428c-.41-.41-.41-1.077 0-1.487.412-.41 1.074-.41 1.486 0zM19.86 4.486c0 .58-.36 1.05-.942 1.05-.58 0-.942-.47-.942-1.05V1.05c0-.58.363-1.05.942-1.05.58 0 .943.47.943 1.05v3.437zM8.487 15.862H5.05c-.58 0-1.05-.363-1.05-.942 0-.583.47-.944 1.05-.944h3.437c.582 0 1.05.36 1.05.944 0 .58-.47.942-1.05.942zm9.49 9.65c0-.58.363-1.052.942-1.05.58 0 .943.47.943 1.05v3.437c0 .58-.36 1.05-.942 1.05-.58 0-.942-.47-.942-1.05v-3.437zm11.538-11.536h3.436c.582 0 1.05.36 1.05.944 0 .58-.47.942-1.05.942h-3.436c-.58 0-1.052-.363-1.052-.942 0-.584.47-.944 1.052-.944z"/></svg>