<?xml version="1.0" encoding="UTF-8" standalone="no"?>
<!-- Created with Inkscape (http://www.inkscape.org/) -->

<svg
   width="38"
   height="38"
   viewBox="0 0 10.054167 10.054167"
   version="1.1"
   id="svg1790"
   sodipodi:docname="moon_75.svg"
   inkscape:version="1.1 (c68e22c387, 2021-05-23)"
   xmlns:inkscape="http://www.inkscape.org/namespaces/inkscape"
   xmlns:sodipodi="http://sodipodi.sourceforge.net/DTD/sodipodi-0.dtd"
   xmlns="http://www.w3.org/2000/svg"
   xmlns:svg="http://www.w3.org/2000/svg">
  <sodipodi:namedview
     id="namedview1792"
     pagecolor="#ffffff"
     bordercolor="#666666"
     borderopacity="1.0"
     inkscape:pageshadow="2"
     inkscape:pageopacity="0.0"
     inkscape:pagecheckerboard="0"
     inkscape:document-units="mm"
     showgrid="true"
     units="px"
     inkscape:zoom="6.4706222"
     inkscape:cx="-7.1090536"
     inkscape:cy="21.249888"
     inkscape:window-width="1600"
     inkscape:window-height="837"
     inkscape:window-x="0"
     inkscape:window-y="0"
     inkscape:window-maximized="1"
     inkscape:current-layer="layer1"
     inkscape:snap-global="true">
    <inkscape:grid
       type="xygrid"
       id="grid3680" />
  </sodipodi:namedview>
  <defs
     id="defs1787" />
  <g
     inkscape:label="Layer 1"
     inkscape:groupmode="layer"
     id="layer1">
    <g
       id="g7098"
       transform="matrix(-0.85191342,0,0,-0.85191342,13.303568,9.9577572)">
      <path
         id="path8633"
         style="fill:#ffffff;stroke-width:0.0330729"
         inkscape:connector-curvature="0"
         d="m 14.684377,5.7877642 c 0,-2.7397607 -2.221177,-4.960938 -4.9609377,-4.960938 -2.7397607,0 -4.960938,2.2211773 -4.960938,4.960938 0,2.7397607 2.2211773,4.9609378 4.960938,4.9609378 2.7397607,0 4.9609377,-2.2211771 4.9609377,-4.9609378" />
      <path
         id="path8635"
         style="fill:none;stroke:#000000;stroke-width:0.0330729;stroke-miterlimit:10"
         inkscape:connector-curvature="0"
         d="m 9.7234393,10.748702 c 2.7397607,0 4.9609377,-2.2211771 4.9609377,-4.9609378 0,-2.7397607 -2.221177,-4.960938 -4.9609377,-4.960938" />
      <path
         id="path8637"
         style="fill:#000000;stroke-width:0.0330729"
         inkscape:connector-curvature="0"
         d="m 9.7234393,10.748702 c -2.7397607,0 -4.960938,-2.2211771 -4.960938,-4.9609378 0,-2.7397607 2.2211773,-4.960938 4.960938,-4.960938 -3.6482738,2.3812502 -3.6482738,7.5406258 0,9.9218758" />
    </g>
  </g>
</svg>
