<svg xmlns="http://www.w3.org/2000/svg" width="38" height="38" viewBox="0 0 38 38"><path fill="#FFC600" d="M27.176 12.308c-.41.41-1.074.41-1.486 0-.41-.41-.41-1.075 0-1.485l2.43-2.43c.41-.41 1.076-.41 1.486 0 .41.41.41 1.077 0 1.487l-2.43 2.428zM19 26.55c-4.16 0-7.547-3.39-7.547-7.55 0-4.162 3.386-7.547 7.546-7.547s7.546 3.385 7.546 7.547c0 4.16-3.385 7.55-7.547 7.55zM10.82 12.308L8.392 9.88c-.41-.41-.41-1.077 0-1.487.412-.41 1.076-.41 1.487 0l2.43 2.43c.408.41.408 1.075 0 1.485-.412.41-1.08.41-1.488 0zm0 13.382c.41-.412 1.076-.41 1.487 0 .41.41.41 1.076 0 1.486l-2.43 2.43c-.41.412-1.077.412-1.486 0-.412-.408-.412-1.076 0-1.487l2.43-2.43zm16.356 0l2.428 2.43c.413.41.413 1.075 0 1.484-.41.412-1.073.412-1.484 0l-2.43-2.428c-.41-.41-.41-1.077 0-1.487.412-.412 1.075-.412 1.486 0zM19.86 8.487c0 .58-.36 1.05-.94 1.05s-.944-.47-.944-1.05V5.05c0-.58.363-1.05.943-1.05s.94.47.94 1.05V8.49zM8.487 19.862H5.05c-.58 0-1.05-.363-1.05-.942 0-.583.47-.945 1.05-.945h3.437c.582 0 1.05.36 1.05.945 0 .58-.47.942-1.05.942zm9.49 9.652c0-.58.363-1.054.943-1.052.58 0 .94.47.94 1.052v3.435c0 .58-.36 1.05-.94 1.05-.582 0-.944-.47-.944-1.05v-3.436zm11.538-11.538h3.436c.582 0 1.05.36 1.05.945 0 .58-.47.943-1.05.943h-3.436c-.58 0-1.052-.364-1.052-.942 0-.583.47-.944 1.052-.944z"/><g><linearGradient id="a" gradientUnits="userSpaceOnUse" x1="19" y1="38" x2="19" y2="21"><stop offset="0" stop-color="#092D4D" stop-opacity=".5"/><stop offset="1" stop-color="#BDD1E3" stop-opacity=".5"/></linearGradient><path fill-rule="evenodd" clip-rule="evenodd" fill="url(#a)" d="M0 21h38v17H0z"/></g><path fill-rule="evenodd" clip-rule="evenodd" fill="#fff" d="M21 32.5v-4h2l-4-5-4 5h2v4h4z"/></svg>