<?xml version="1.0" encoding="UTF-8" standalone="no"?>
<!-- Generator: Adobe Illustrator 16.0.0, SVG Export Plug-In . SVG Version: 6.00 Build 0)  -->

<svg
   xmlns:dc="http://purl.org/dc/elements/1.1/"
   xmlns:cc="http://creativecommons.org/ns#"
   xmlns:rdf="http://www.w3.org/1999/02/22-rdf-syntax-ns#"
   xmlns:svg="http://www.w3.org/2000/svg"
   xmlns="http://www.w3.org/2000/svg"
   xmlns:sodipodi="http://sodipodi.sourceforge.net/DTD/sodipodi-0.dtd"
   xmlns:inkscape="http://www.inkscape.org/namespaces/inkscape"
   version="1.1"
   id="Capa_1"
   x="0px"
   y="0px"
   width="16"
   height="16"
   viewBox="0 0 16 16"
   xml:space="preserve"
   inkscape:version="0.91 r13725"
   sodipodi:docname="clear.svg"><metadata
     id="metadata39"><rdf:RDF><cc:Work
         rdf:about=""><dc:format>image/svg+xml</dc:format><dc:type
           rdf:resource="http://purl.org/dc/dcmitype/StillImage" /><dc:title></dc:title></cc:Work></rdf:RDF></metadata><defs
     id="defs37" /><sodipodi:namedview
     pagecolor="#ffffff"
     bordercolor="#666666"
     borderopacity="1"
     objecttolerance="10"
     gridtolerance="10"
     guidetolerance="10"
     inkscape:pageopacity="0"
     inkscape:pageshadow="2"
     inkscape:window-width="1280"
     inkscape:window-height="995"
     id="namedview35"
     showgrid="true"
     inkscape:snap-bbox="true"
     inkscape:bbox-paths="true"
     inkscape:bbox-nodes="true"
     inkscape:snap-bbox-edge-midpoints="true"
     inkscape:zoom="38.14336"
     inkscape:cx="7.8456865"
     inkscape:cy="10.179451"
     inkscape:window-x="-2"
     inkscape:window-y="0"
     inkscape:window-maximized="1"
     inkscape:current-layer="Capa_1"><inkscape:grid
       type="xygrid"
       id="grid4167" /></sodipodi:namedview><path
     d="m 13.6,3.0999995 -6.6876597,0 c -0.308,0 -0.74956,0.16604 -0.98154,0.36876 l -4.75692,4.16248 c -0.23184003,0.20272 -0.23184003,0.53466 0,0.73752 l 4.75706,4.1624805 c 0.23184,0.20272 0.6734,0.36876 0.9814,0.36876 L 13.6,12.9 c 0.77,0 1.4,-0.63 1.4,-1.4 l 0,-7.0000005 c 0,-0.77 -0.63,-1.4 -1.4,-1.4 z m -1.96616,7.6998595 -1.7893397,-1.7893395 -1.78948,1.7893395 -1.01052,-1.0105195 1.78934,-1.78934 -1.78934,-1.78906 1.01052,-1.01108 1.7892,1.78934 1.7893397,-1.78906 1.01066,1.01052 -1.7892,1.7892 1.78948,1.78934 -1.01066,1.0106595 z"
     id="path3"
     inkscape:connector-curvature="0"
     style="fill:#969696;fill-opacity:1" /><g
     id="g5"
     transform="translate(0,-54)" /><g
     id="g7"
     transform="translate(0,-54)" /><g
     id="g9"
     transform="translate(0,-54)" /><g
     id="g11"
     transform="translate(0,-54)" /><g
     id="g13"
     transform="translate(0,-54)" /><g
     id="g15"
     transform="translate(0,-54)" /><g
     id="g17"
     transform="translate(0,-54)" /><g
     id="g19"
     transform="translate(0,-54)" /><g
     id="g21"
     transform="translate(0,-54)" /><g
     id="g23"
     transform="translate(0,-54)" /><g
     id="g25"
     transform="translate(0,-54)" /><g
     id="g27"
     transform="translate(0,-54)" /><g
     id="g29"
     transform="translate(0,-54)" /><g
     id="g31"
     transform="translate(0,-54)" /><g
     id="g33"
     transform="translate(0,-54)" /></svg>