<?xml version="1.0" encoding="UTF-8" standalone="no"?>
<svg
   xmlns:dc="http://purl.org/dc/elements/1.1/"
   xmlns:cc="http://creativecommons.org/ns#"
   xmlns:rdf="http://www.w3.org/1999/02/22-rdf-syntax-ns#"
   xmlns:svg="http://www.w3.org/2000/svg"
   xmlns="http://www.w3.org/2000/svg"
   xmlns:sodipodi="http://sodipodi.sourceforge.net/DTD/sodipodi-0.dtd"
   xmlns:inkscape="http://www.inkscape.org/namespaces/inkscape"
   inkscape:version="1.0beta2 (unknown)"
   sodipodi:docname="login.svg"
   id="svg8"
   version="1.1"
   viewBox="0 0 33.866666 33.866668"
   height="128"
   width="128">
  <defs
     id="defs2" />
  <sodipodi:namedview
     inkscape:window-maximized="1"
     inkscape:window-y="0"
     inkscape:window-x="1600"
     inkscape:window-height="1051"
     inkscape:window-width="1920"
     units="px"
     showgrid="true"
     inkscape:document-rotation="0"
     inkscape:current-layer="g899"
     inkscape:document-units="mm"
     inkscape:cy="39.624902"
     inkscape:cx="81.589114"
     inkscape:zoom="3.959798"
     inkscape:pageshadow="2"
     inkscape:pageopacity="0.0"
     borderopacity="1.0"
     bordercolor="#666666"
     pagecolor="#ffffff"
     id="base">
    <inkscape:grid
       id="grid847"
       type="xygrid" />
  </sodipodi:namedview>
  <metadata
     id="metadata5">
    <rdf:RDF>
      <cc:Work
         rdf:about="">
        <dc:format>image/svg+xml</dc:format>
        <dc:type
           rdf:resource="http://purl.org/dc/dcmitype/StillImage" />
        <dc:title></dc:title>
      </cc:Work>
    </rdf:RDF>
  </metadata>
  <g
     id="layer1"
     inkscape:groupmode="layer"
     inkscape:label="Layer 1">
    <g
       transform="matrix(-1,0,0,1,33.866667,0)"
       id="g877">
      <g
         transform="matrix(-1,0,0,1,33.866667,0)"
         id="g899">
        <path
           sodipodi:nodetypes="czzzzzzzzcczzzzzzzzcc"
           inkscape:connector-curvature="0"
           id="path849"
           d="M 9.1281253,10.715625 V 4.1010416 c 10e-8,-2.6458333 1.3229167,-3.96874993 3.9687507,-3.96874994 h 16.668749 c 2.645833,10e-9 3.96875,1.32291664 3.96875,3.96874994 V 29.765625 c 0,2.645833 -1.322917,3.96875 -3.96875,3.96875 H 12.832292 c -2.38125,0 -3.7041667,-1.322917 -3.7041667,-3.96875 v -6.614583 l 4.2333337,-1e-6 v 5.291667 c 0,0.79375 0.264583,1.058334 1.058333,1.058334 h 14.022916 c 0.79375,0 1.058334,-0.264584 1.058334,-1.058334 V 5.4239583 c 0,-0.79375 -0.264584,-1.0583333 -1.058334,-1.0583333 H 14.419792 c -0.79375,0 -1.058333,0.2645833 -1.058333,1.0583333 v 5.2916667 z"
           style="fill:#e8f4ff;fill-opacity:1;fill-rule:evenodd;stroke:none;stroke-width:0.264583px;stroke-linecap:butt;stroke-linejoin:miter;stroke-opacity:1" />
        <path
           sodipodi:nodetypes="cccccccc"
           inkscape:connector-curvature="0"
           id="path853"
           d="m 0.13229167,18.917708 14.02291733,0 v 6.085417 l 8.202083,-8.202084 -8.202083,-8.2020828 v 6.3499998 l -14.02291733,0 z"
           style="fill:#e8f4ff;fill-opacity:1;fill-rule:evenodd;stroke:none;stroke-width:0.264583px;stroke-linecap:butt;stroke-linejoin:miter;stroke-opacity:1" />
      </g>
    </g>
  </g>
</svg>
