<?xml version="1.0" encoding="UTF-8" standalone="no"?>
<svg
   xmlns:dc="http://purl.org/dc/elements/1.1/"
   xmlns:cc="http://creativecommons.org/ns#"
   xmlns:rdf="http://www.w3.org/1999/02/22-rdf-syntax-ns#"
   xmlns:svg="http://www.w3.org/2000/svg"
   xmlns="http://www.w3.org/2000/svg"
   xmlns:sodipodi="http://sodipodi.sourceforge.net/DTD/sodipodi-0.dtd"
   xmlns:inkscape="http://www.inkscape.org/namespaces/inkscape"
   inkscape:version="1.0beta1 (fe3e306978, 2019-09-17)"
   sodipodi:docname="pluginmanager.svg"
   id="svg10"
   version="1.1"
   width="24"
   height="24">
  <metadata
     id="metadata16">
    <rdf:RDF>
      <cc:Work
         rdf:about="">
        <dc:format>image/svg+xml</dc:format>
        <dc:type
           rdf:resource="http://purl.org/dc/dcmitype/StillImage" />
        <dc:title></dc:title>
      </cc:Work>
    </rdf:RDF>
  </metadata>
  <defs
     id="defs14" />
  <sodipodi:namedview
     inkscape:current-layer="svg10"
     inkscape:window-maximized="1"
     inkscape:window-y="0"
     inkscape:window-x="0"
     inkscape:cy="16.417178"
     inkscape:cx="12"
     inkscape:zoom="27.166667"
     showgrid="false"
     id="namedview12"
     inkscape:window-height="837"
     inkscape:window-width="1600"
     inkscape:pageshadow="2"
     inkscape:pageopacity="0"
     guidetolerance="10"
     gridtolerance="10"
     objecttolerance="10"
     borderopacity="1"
     inkscape:document-rotation="0"
     bordercolor="#666666"
     pagecolor="#ffffff" />
  <path
     inkscape:connector-curvature="0"
     style="fill:none;stroke:#e8f4ff;stroke-opacity:1;stroke-width:1;stroke-miterlimit:4;stroke-dasharray:none"
     id="path2"
     stroke-linejoin="round"
     stroke-linecap="round"
     stroke-width=".75"
     stroke="#3c3c3c"
     fill="#afafaf"
     overflow="visible"
     d="m 10.250001,3.25 a 2.5,2.5 0 0 0 -2.5000005,2.5 c 0,0.36 0.364,0.69 0.5,1 h -5 v 5 c 0.31,-0.137 0.64,-0.5 1,-0.5 a 2.5,2.5 0 1 1 0,5 c -0.36,0 -0.69,-0.364 -1,-0.5 v 5 H 17.250001 v -5 c 0.31,0.136 0.64,0.5 1,0.5 a 2.5,2.5 0 1 0 0,-5 c -0.36,0 -0.69,0.363 -1,0.5 v -5 h -5 c 0.137,-0.31 0.5,-0.64 0.5,-1 a 2.5,2.5 0 0 0 -2.5,-2.5 z" />
</svg>
