<?xml version="1.0" encoding="UTF-8" standalone="no"?>
<!-- Created with Inkscape (http://www.inkscape.org/) -->

<svg
   xmlns:dc="http://purl.org/dc/elements/1.1/"
   xmlns:cc="http://creativecommons.org/ns#"
   xmlns:rdf="http://www.w3.org/1999/02/22-rdf-syntax-ns#"
   xmlns:svg="http://www.w3.org/2000/svg"
   xmlns="http://www.w3.org/2000/svg"
   xmlns:sodipodi="http://sodipodi.sourceforge.net/DTD/sodipodi-0.dtd"
   xmlns:inkscape="http://www.inkscape.org/namespaces/inkscape"
   width="24"
   height="24"
   viewBox="0 0 24.000001 24.000001"
   id="svg4141"
   version="1.1"
   inkscape:version="0.91 r13725"
   sodipodi:docname="viewshed.svg">
  <defs
     id="defs4143" />
  <sodipodi:namedview
     id="base"
     pagecolor="#ffffff"
     bordercolor="#666666"
     borderopacity="1.0"
     inkscape:pageopacity="0.0"
     inkscape:pageshadow="2"
     inkscape:zoom="5.6"
     inkscape:cx="-19.925754"
     inkscape:cy="6.6299911"
     inkscape:document-units="px"
     inkscape:current-layer="layer1"
     showgrid="true"
     units="px"
     inkscape:snap-bbox="false"
     inkscape:bbox-paths="true"
     inkscape:bbox-nodes="true"
     inkscape:snap-bbox-edge-midpoints="true"
     inkscape:snap-bbox-midpoints="true"
     inkscape:object-paths="true"
     inkscape:snap-intersection-paths="true"
     inkscape:object-nodes="true"
     inkscape:snap-smooth-nodes="true"
     inkscape:window-width="1600"
     inkscape:window-height="818"
     inkscape:window-x="0"
     inkscape:window-y="0"
     inkscape:window-maximized="1"
     inkscape:snap-global="false">
    <inkscape:grid
       type="xygrid"
       id="grid4689"
       originx="0"
       originy="0" />
  </sodipodi:namedview>
  <metadata
     id="metadata4146">
    <rdf:RDF>
      <cc:Work
         rdf:about="">
        <dc:format>image/svg+xml</dc:format>
        <dc:type
           rdf:resource="http://purl.org/dc/dcmitype/StillImage" />
        <dc:title></dc:title>
      </cc:Work>
    </rdf:RDF>
  </metadata>
  <g
     inkscape:label="Layer 1"
     inkscape:groupmode="layer"
     id="layer1"
     transform="translate(0,-1028.3622)">
    <circle
       style="color:#000000;clip-rule:nonzero;display:inline;overflow:visible;visibility:visible;opacity:1;isolation:auto;mix-blend-mode:normal;color-interpolation:sRGB;color-interpolation-filters:linearRGB;solid-color:#000000;solid-opacity:1;fill:#000000;fill-opacity:1;fill-rule:evenodd;stroke:none;stroke-width:1;stroke-linecap:butt;stroke-linejoin:bevel;stroke-miterlimit:4;stroke-dasharray:none;stroke-dashoffset:0;stroke-opacity:1;color-rendering:auto;image-rendering:auto;shape-rendering:auto;text-rendering:auto;enable-background:accumulate"
       id="path4138"
       cx="12"
       cy="1040.3622"
       r="11" />
    <g
       id="g4174"
       transform="matrix(0.13250641,0,0,0.13250641,13.119339,902.88719)"
       style="stroke:none;stroke-opacity:1;fill:#00ff00;fill-opacity:1">
      <path
         style="fill:#00ff00;stroke:none;stroke-opacity:1;fill-opacity:1"
         d="m -25.717642,1118.1004 c -3.85,-1.0098 -9.250001,-2.4839 -12.000001,-3.2759 -5.769624,-1.6615 -15.500001,-6.4055 -15.500001,-7.557 0,-1.0396 6.619852,-11.2404 21.712784,-33.4581 12.922545,-19.0227 14.492143,-19.3187 6.787218,-1.2797 -2.475,5.7946 -4.5,10.8685 -4.5,11.2754 0,0.4069 -0.980519,3.1056 -2.178931,5.9969 -1.198411,2.8914 -1.842635,5.5934 -1.431607,6.0044 1.066861,1.0669 4.293985,-3.4518 6.22952,-8.7228 5.634069,-15.3429 10.796505,-27.8643 12.449159,-30.1954 1.051049,-1.4824 1.642547,-3.3949 1.31444,-4.25 -0.855478,-2.2293 -1.893868,-1.9226 -3.200626,0.9454 -0.626492,1.375 -1.793399,2.5 -2.593128,2.5 -1.992097,0 -2.935942,-3.4829 -1.613483,-5.9539 0.693447,-1.2957 0.77452,-3.2075 0.224238,-5.2878 -0.823276,-3.1122 -1.053661,-3.2435 -5.140671,-2.9285 -3.230184,0.249 -4.161273,0 -3.799327,-1 0.263692,-0.7314 -0.171322,-2.0783 -0.966697,-2.9932 -1.289609,-1.4833 -1.113127,-1.9096 1.630487,-3.938 1.692145,-1.2511 3.076626,-3.0151 3.076626,-3.92 0,-2.6484 1.030829,-2.9477 3.083334,-0.8952 1.054167,1.0541 2.96373,1.9166 4.243474,1.9166 2.055869,0 2.271506,-0.3784 1.851885,-3.25 -0.261208,-1.7875 -1.629905,-5.05 -3.04155,-7.25 -3.008981,-4.6894 -7.137143,-13.2327 -7.137143,-14.7705 0,-0.5896 0.688935,-1.8333 1.530967,-2.7637 1.386133,-1.5317 1.275586,-2.0818 -1.168533,-5.81484 -1.484725,-2.26773 -3.52366,-4.38472 -4.530967,-4.70442 -2.019251,-0.64089 -2.389454,-1.98363 -0.815155,-2.9566 1.669122,-1.03157 -0.03055,-2.62017 -2.100469,-1.9632 -2.128271,0.67548 -2.662262,-1.3803 -0.833544,-3.20901 0.776399,-0.7764 1.924573,-0.66212 4.06233,0.40433 1.639018,0.81765 3.250851,1.21582 3.581853,0.88482 0.331001,-0.33101 -0.230825,-4.24748 -1.248503,-8.70327 -1.417228,-6.20518 -2.403874,-8.46415 -4.215264,-9.65102 -1.985727,-1.3011 -5.262716,-6.03663 -5.262716,-7.60508 0,-0.24851 1.432611,-0.95125 3.183582,-1.56164 3.0591,-1.06641 4.747018,-0.32744 4.801106,2.10192 0.0084,0.37827 2.940313,3.68565 6.515314,7.34973 6.838811,7.00922 7.487659,8.39793 4.919587,10.52924 -0.87644,0.72738 -1.395287,2.28005 -1.164807,3.48573 0.326533,1.70814 0.02229,2.07124 -1.419587,1.69419 -1.093792,-0.28604 -1.879911,0.0722 -1.945884,0.88671 -0.237474,2.93195 0.362614,6.50046 1.589762,9.45374 0.904683,2.17724 0.981895,3.62471 0.261972,4.91114 -0.759856,1.35779 -0.640238,2.10233 0.467963,2.91293 0.859347,0.6285 1.709704,3.389 2.011392,6.5294 0.446759,4.6507 1.0132,5.8474 3.901126,8.2419 6.4463172,5.3449 6.8304372,5.7792 6.3102871,7.1346 -0.64599,1.6835 1.2091202,3.3037 4.8202905,4.2101 2.61772029,0.657 2.7136603,0.5516 2.13458024,-2.3438 -0.38950004,-1.9475 -0.0682,-3.8 0.89858009,-5.1802 1.79562017,-2.5637 1.21085007,-9.6298 -1.0082301,-12.183 -1.32532013,-1.5249 -1.15179013,-1.7093 1.88150019,-2 2.45731028,-0.2355 3.30496028,-0.7818 3.20347028,-2.0648 -0.11584,-1.4646 0.3379601,-1.3442 2.8267303,0.75 3.6358204,3.0593 4.1696404,3.0808 6.0939404,0.2446 1.22896,-1.8113 1.7792,-2.0062 2.821981,-1 0.71244,0.6875 1.65535,1.25 2.09535,1.25 1.38556,0 0.86771,-3.6989 -0.7,-5 -1.884841,-1.56425 -1.932111,-2.99997 -0.0988,-2.99997 0.77068,0 2.3305,1.575 3.46628,3.49997 1.13578,1.925 2.6551,3.5 3.37627,3.5 1.999501,0 5.756231,-2.9375 5.756231,-4.50091 0,-0.76315 1.11078,-2.65013 2.4684,-4.1933 l 2.46842,-2.80576 0.0316,2.78138 c 0.0174,1.52976 0.7066,3.04041 1.531601,3.35699 0.825,0.31658 1.5,1.682 1.5,3.0344 0,3.5529 1.7693,6.3272 4.03518,6.3272 2.07999,0 2.64424,1.4621 0.96482,2.5 -1.56411,0.9667 -1.18152,2.3325 0.97697,3.4877 1.42987,0.7652 2.514001,0.7227 3.917551,-0.1539 1.5756,-0.984 2.69638,-0.8711 5.95924,0.6003 2.945411,1.3282 5.194161,1.6359 8.420191,1.1521 6.965391,-1.0445 9.339771,0.3854 10.630051,6.4018 1.40783,6.5645 1.41071,23.9328 0.005,31.5784 -3.4453,18.7419 -16.115201,38.8352 -31.296903,49.6339 -13.454161,9.5699 -29.404873,15.444 -43.6123343,16.0609 -5.3959105,0.2343 -5.5062806,0.1837 -5.8320906,-2.6735 -0.18265,-1.6018 0.22614,-3.9554 0.9084201,-5.2303 0.9461001,-1.7678 1.0596901,-7.2471 0.4786201,-23.0876 -0.4190401,-11.4234 -1.0528301,-23.2091 -1.4084202,-26.1906 -1.0149801,-8.5102 -2.6407321,-7.1978 -2.6892891,2.1708 -0.142023,27.4023 -0.682468,53.1734 -1.140106,54.366 -0.708571,1.8465 -5.242208,1.6499 -13.817137,-0.5992 z m 5.500001,-139.95776 c 0,-1.17986 -1.950354,-2.442 -2.666667,-1.72568 -0.716312,0.71631 0.545824,2.66666 1.725684,2.66666 0.517541,0 0.940983,-0.42344 0.940983,-0.94098 z m 7.000001,35.56346 c 0,-0.7577 0.675,-1.9378 1.5,-2.6225 2.329755,-1.9335 1.7918509,-4.1096 -1.75,-7.0796 -1.787501,-1.4989 -2.91526,-3.0664 -2.506132,-3.4834 0.409128,-0.4169 1.569562,-0.011 2.578742,0.9025 2.175531,1.9688 6.3219202,2.4051 4.37739,0.4605 -1.828853,-1.8288 -1.541564,-5.14502 0.3817901,-4.40696 0.86998,0.33384 1.7699801,0.60699 2.0000002,0.60699 0.23001,0 0.41821,0.675 0.41821,1.5 0,1.05347 1.0637001,1.49997 3.5733204,1.49997 2.86920024,0 3.50469031,0.3449 3.22499028,1.75 -0.25427003,1.2775 -1.28671013,1.7358 -3.82332038,1.6972 -4.2312904,-0.064 -4.9399805,0.8363 -4.9596805,6.3028 -0.01391,3.8626 -0.2432,4.25 -2.5153101,4.25 -1.456794,0 -2.5,-0.5748 -2.5,-1.3775 z m 48.574524,-20.72578 c -1.09691,-2.4862 -3.16394,-4.90193 -5.24499,-6.12978 -3.48651,-2.05709 -4.340271,-5.61267 -1.56703,-6.52609 2.05873,-0.67808 8.237501,6.21556 8.237501,9.19056 0,1.44726 0.675,2.89041 1.5,3.20699 1.8418,0.70676 2.00306,4.36163 0.19245,4.36163 -0.71916,0 -2.12222,-1.84649 -3.117931,-4.10331 z m -84.074528,-22.8967 c -1.746633,-1.93 -1.746633,-2.06999 0,-4 0.995486,-1.1 2.613673,-2 3.595971,-2 0.982298,0 2.064111,-0.45 2.40403,-1 1.116301,-1.80621 1.99309,-1.05485 3.20906,2.75 1.030313,3.22392 0.967682,3.92537 -0.446439,5 -2.463639,1.87221 -6.71919,1.50797 -8.762622,-0.75 z m 77.845088,-2.54312 c -0.32569,-0.84873 -0.33097,-1.80432 -0.0118,-2.12354 1.00905,-1.00905 3.66667,0.53861 3.66667,2.13528 0,1.99605 -2.88802,1.98677 -3.65492,-0.0117 z"
         id="path4176"
         inkscape:connector-curvature="0" />
    </g>
  </g>
</svg>
